<svg width="72" height="72" viewBox="0 0 72 72" fill="none" xmlns="http://www.w3.org/2000/svg">
<circle cx="36" cy="36" r="36" fill="#FFECB3"/>
<path fill-rule="evenodd" clip-rule="evenodd" d="M46.5 22.5H40.23C39.6 20.76 37.95 19.5 36 19.5C34.05 19.5 32.4 20.76 31.77 22.5H25.5C23.85 22.5 22.5 23.85 22.5 25.5V49.5C22.5 51.15 23.85 52.5 25.5 52.5H46.5C48.15 52.5 49.5 51.15 49.5 49.5V25.5C49.5 23.85 48.15 22.5 46.5 22.5ZM36 22.5C36.825 22.5 37.5 23.175 37.5 24C37.5 24.825 36.825 25.5 36 25.5C35.175 25.5 34.5 24.825 34.5 24C34.5 23.175 35.175 22.5 36 22.5ZM27 49.5H45C45.825 49.5 46.5 48.825 46.5 48V27C46.5 26.175 45.825 25.5 45 25.5H43.5V27C43.5 28.65 42.15 30 40.5 30H31.5C29.85 30 28.5 28.65 28.5 27V25.5H27C26.175 25.5 25.5 26.175 25.5 27V48C25.5 48.825 26.175 49.5 27 49.5Z" fill="#0D47A1"/>
</svg>
