<svg width="100" height="100" viewBox="0 0 100 100" fill="none" xmlns="http://www.w3.org/2000/svg">
<circle cx="50" cy="50" r="50" fill="#F5F5F5"/>
<path d="M27.3125 74.0933H48.2381C48.4369 74.0933 48.6278 74.016 48.7706 73.8778C48.9134 73.7395 48.9968 73.5512 49.0033 73.3526C49.0162 72.9645 49.1794 72.5966 49.4584 72.3265C49.7374 72.0564 50.1104 71.9052 50.4987 71.9049C50.8871 71.9045 51.2603 72.055 51.5398 72.3246C51.8193 72.5942 51.9831 72.9619 51.9967 73.35C52.0024 73.5491 52.0855 73.7382 52.2284 73.8771C52.3712 74.016 52.5626 74.0937 52.7619 74.0937H73.6875C73.8906 74.0937 74.0853 74.013 74.2289 73.8695C74.3725 73.7259 74.4531 73.5311 74.4531 73.3281V42.0683C74.4531 41.8652 74.3725 41.6705 74.2289 41.5269C74.0853 41.3833 73.8906 41.3026 73.6875 41.3026H71.2217C70.6298 40.3545 69.7957 39.5812 68.8054 39.0626V35.0258C68.8055 34.8369 68.7357 34.6546 68.6095 34.5141C68.4832 34.3735 68.3095 34.2847 68.1216 34.2646C65.049 33.9417 61.9431 34.3013 59.0255 35.3176C56.108 36.3339 53.4508 37.9818 51.2437 40.1437C50.99 36.3169 49.3319 28.1125 39.9353 25.9276C39.8228 25.9011 39.7058 25.9004 39.593 25.9256C39.4803 25.9508 39.3746 26.0011 39.2841 26.0728C39.1935 26.1446 39.1204 26.2359 39.0701 26.3399C39.0198 26.4439 38.9937 26.558 38.9938 26.6735V29.4376C37.8593 28.9802 36.691 28.6114 35.4994 28.3347C35.3873 28.3086 35.2707 28.3081 35.1583 28.3333C35.046 28.3585 34.9407 28.4086 34.8505 28.4801C34.7602 28.5516 34.6872 28.6425 34.6369 28.7461C34.5867 28.8497 34.5604 28.9633 34.5601 29.0785V38.647C31.4377 39.1221 30.1956 40.5068 29.731 41.3026H27.3125C27.1094 41.3026 26.9147 41.3833 26.7711 41.5269C26.6275 41.6705 26.5469 41.8652 26.5469 42.0683V73.3276C26.5469 73.5307 26.6275 73.7254 26.7711 73.869C26.9147 74.0126 27.1094 74.0933 27.3125 74.0933ZM58.9241 65.8586C61.5766 65.559 64.7572 65.9842 68.2502 68.0251H53.6307C55.3452 67.1864 57.1135 66.4626 58.9241 65.8586ZM70.0169 42.2651V67.3186C68.1746 66.0723 66.1251 65.1639 63.9645 64.6358C65.3026 64.4278 66.657 64.3446 68.0105 64.3873C68.1134 64.3913 68.2161 64.3744 68.3124 64.3377C68.4087 64.301 68.4965 64.2453 68.5708 64.1739C68.645 64.1024 68.704 64.0167 68.7444 63.9219C68.7847 63.8271 68.8055 63.7252 68.8054 63.6221V40.8765C69.2979 41.2539 69.7098 41.7261 70.0169 42.2651ZM67.2742 35.7254V62.8416H67.2563C64.2906 62.8837 61.3503 63.3948 58.5443 64.3558C55.9255 64.7186 53.4305 65.6994 51.2656 67.2171V42.3465C52.2938 41.1692 58.0893 35.0613 67.2742 35.7254ZM40.525 27.6671C50.5525 30.6456 49.7764 41.528 49.737 42.0026C49.737 42.0245 49.7344 42.0464 49.7344 42.0674V62.1946C48.0203 58.3056 44.9407 55.6491 40.525 54.2623V27.6671ZM36.0931 30.0646C37.0831 30.3413 38.0524 30.6874 38.9938 31.1001V54.8323C38.9937 54.999 39.0481 55.1612 39.1486 55.2941C39.2491 55.4271 39.3903 55.5236 39.5507 55.5691C45.0194 57.1178 48.2482 60.5863 49.3638 66.1277C46.6364 62.8395 42.4062 58.643 36.0931 57.0876V30.0646ZM34.5619 40.2001V57.6958C34.562 57.8708 34.6221 58.0404 34.7321 58.1766C34.8421 58.3127 34.9954 58.407 35.1665 58.4439C40.5372 59.5989 44.3978 62.8675 47.0748 65.8228C39.5682 62.3145 33.5259 65.4404 30.9831 67.2158V42.2013C31.1214 41.8836 31.8275 40.6705 34.5619 40.2001ZM47.9664 68.0251H32.5227C35.275 66.3027 41.0023 63.9564 47.9664 68.0251ZM28.0781 42.8339H29.4519V68.7689C29.4483 68.8722 29.4658 68.9752 29.5033 69.0715C29.5408 69.1678 29.5975 69.2555 29.67 69.3292C29.7425 69.4028 29.8293 69.461 29.925 69.5001C30.0207 69.5391 30.1233 69.5583 30.2267 69.5564H50.4733H50.4939H50.4996H50.5284H50.5394H70.7716H70.7834C70.985 69.5571 71.1788 69.4777 71.322 69.3357C71.4652 69.1938 71.5462 69.0007 71.5472 68.7991V68.7886V42.8339H72.921V72.562H53.4085C53.2256 71.9312 52.8429 71.3769 52.3178 70.9824C51.7927 70.5879 51.1537 70.3746 50.4969 70.3746C49.8402 70.3746 49.2012 70.5879 48.6761 70.9824C48.151 71.3769 47.7682 71.9312 47.5854 72.562H28.0781V42.8339Z" fill="#757575" fill-opacity="0.5"/>
</svg>
