<svg width="72" height="72" viewBox="0 0 72 72" fill="none" xmlns="http://www.w3.org/2000/svg">
<circle cx="36" cy="36" r="36" fill="#FFECB3"/>
<path fill-rule="evenodd" clip-rule="evenodd" d="M34.0464 35.9458C37.3614 35.9458 40.0464 33.2608 40.0464 29.9458C40.0464 26.6308 37.3614 23.9458 34.0464 23.9458C30.7314 23.9458 28.0464 26.6308 28.0464 29.9458C28.0464 33.2608 30.7314 35.9458 34.0464 35.9458ZM35.5464 47.9458L34.2564 46.6558C32.4864 44.8858 32.5014 42.0058 34.2864 40.2658L35.5464 39.0358C34.9614 38.9758 34.5264 38.9458 34.0464 38.9458C30.0414 38.9458 22.0464 40.9558 22.0464 44.9458V47.9458H35.5464ZM36.5813 44.4809L39.6863 47.6159C40.2713 48.2009 41.2313 48.2009 41.8163 47.6159L49.5263 39.8459C50.0963 39.2759 50.0963 38.3459 49.5263 37.7609L49.5113 37.7459C48.9263 37.1609 47.9813 37.1609 47.3963 37.7459L40.7513 44.4359L38.6963 42.3809C38.1263 41.7959 37.1813 41.7959 36.5963 42.3809L36.5813 42.3959C36.0113 42.9659 36.0113 43.8959 36.5813 44.4809Z" fill="#0D47A1"/>
</svg>
