<svg width="80" height="80" viewBox="0 0 80 80" fill="none" xmlns="http://www.w3.org/2000/svg">
<path d="M66.6088 35.2754C64.946 33.7737 64.0301 31.7804 64.0298 29.6624C64.0293 27.5431 64.9455 25.5481 66.6076 24.0459C69.8668 21.108 69.94 18.901 69.4273 17.5667C68.9413 16.3015 67.542 14.7934 63.636 14.7934C63.3636 14.7934 63.0791 14.8009 62.7921 14.8157C60.4893 14.9327 58.3603 14.1132 56.8626 12.5387C55.4504 11.0539 54.7328 9.04135 54.8413 6.87485C54.9798 4.20801 54.4909 2.26684 53.3881 1.10517C52.7018 0.382167 51.8146 0 50.8224 0C49.1941 0 47.4429 1.02567 45.6174 3.04851C44.1141 4.71334 42.1194 5.63018 40.0001 5.63018C37.8807 5.63018 35.8859 4.71334 34.3831 3.04867C32.5569 1.02567 30.8059 0 29.1782 0C28.1867 0 27.2997 0.382001 26.6136 1.10434C25.5105 2.26567 25.0209 4.20684 25.1582 6.87185C25.267 9.04185 24.5492 11.0545 23.1367 12.5394C21.7337 14.0145 19.7829 14.8269 17.6435 14.8269C17.6432 14.8269 17.643 14.8269 17.6427 14.8269C17.4987 14.8269 17.3522 14.8232 17.2092 14.816C16.9205 14.801 16.636 14.7935 16.3637 14.7935C12.458 14.7935 11.0589 16.3017 10.5727 17.567C10.0602 18.9014 10.133 21.1085 13.3904 24.0445C15.054 25.5481 15.9702 27.5432 15.9699 29.6626C15.9695 31.7806 15.0537 33.7739 13.3915 35.2749C10.1324 38.2149 10.0599 40.4229 10.5729 41.7576C11.059 43.0223 12.4575 44.5299 16.3585 44.5299C16.6329 44.5299 16.919 44.5223 17.2084 44.5073C19.1369 44.4081 20.9447 44.9706 22.3619 46.0829L12.044 70.4013C11.8172 70.9363 11.8852 71.5508 12.2235 72.023C12.562 72.4955 13.124 72.7565 13.7014 72.7143L23.0779 72.0201L27.8991 79.2573C28.2101 79.7242 28.7322 80 29.2857 80C29.3422 80 29.3992 79.997 29.4564 79.9912C30.0714 79.9282 30.6009 79.5297 30.8321 78.9562L39.9434 56.3448L49.9964 79.009C50.2429 79.5647 50.7723 79.9422 51.3779 79.9938C51.4254 79.9978 51.4729 79.9998 51.5203 79.9998C52.0741 79.9998 52.5959 79.7237 52.9066 79.2577L57.7316 72.02L67.1033 72.7141C67.6836 72.7577 68.2495 72.4917 68.5871 72.0143C68.9246 71.5368 68.9873 70.9173 68.7523 70.3818L57.9713 45.8334C59.2198 44.9643 60.7323 44.4961 62.3535 44.4961C62.4981 44.4961 62.6456 44.4998 62.7898 44.5071C63.0805 44.5223 63.3666 44.5299 63.6401 44.5299C63.6405 44.5299 63.6409 44.5299 63.6413 44.5299C67.5421 44.5298 68.9405 43.0219 69.4266 41.7571C69.9393 40.4224 69.8671 38.2144 66.6088 35.2754ZM28.9211 74.7797L25.3124 69.3623C24.979 68.8618 24.3992 68.5796 23.8022 68.6241L16.1795 69.1886L24.658 49.2059C25.041 50.2079 25.2157 51.3064 25.1584 52.4489C25.0209 55.1149 25.5105 57.0556 26.6136 58.2168C27.2999 58.9391 28.1867 59.321 29.1784 59.321C29.1784 59.321 29.1789 59.321 29.1791 59.321C30.8074 59.3206 32.5581 58.2946 34.3826 56.272C35.1942 55.373 36.1499 54.6945 37.1904 54.2583L28.9211 74.7797ZM64.5863 69.1855L57.0074 68.6241C56.4089 68.58 55.8309 68.8615 55.4976 69.3618L51.8143 74.887L42.6317 54.1849C43.7412 54.6166 44.7593 55.3216 45.6166 56.2713C47.4419 58.295 49.1933 59.321 50.8218 59.3208C51.8141 59.3208 52.7014 58.9385 53.3881 58.2153C54.4909 57.0535 54.9801 55.1131 54.8416 52.4509C54.7736 51.0964 55.0281 49.8031 55.5726 48.6609L64.5863 69.1855ZM66.315 40.5613C66.2665 40.6873 65.6385 41.1964 63.641 41.1964C63.4246 41.1964 63.1966 41.1904 62.9613 41.1781C62.7589 41.1678 62.5546 41.1626 62.3535 41.1626C59.2939 41.1626 56.4866 42.3428 54.4483 44.4859C52.3999 46.6394 51.3573 49.5276 51.5126 52.6211C51.6119 54.5303 51.2826 55.5916 50.9706 55.9205C50.9131 55.9809 50.8896 55.9875 50.8218 55.9875C50.7223 55.9875 49.8004 55.9328 48.0914 54.0381C45.9481 51.6643 43.0744 50.3568 39.9999 50.3568C36.9254 50.3568 34.0519 51.6643 31.9079 54.0386C30.1996 55.9326 29.2779 55.9875 29.1784 55.9875C29.1109 55.9875 29.0876 55.9809 29.0302 55.9208C28.7182 55.5923 28.3887 54.5308 28.4872 52.6181C28.6424 49.5279 27.5997 46.6399 25.5512 44.4863C23.379 42.2023 20.3412 41.0109 17.0367 41.1783C16.8034 41.1903 16.575 41.1964 16.3585 41.1964C14.3609 41.1964 13.7327 40.6874 13.6844 40.5614C13.6242 40.4051 13.7804 39.4129 15.625 37.7492C17.9965 35.6076 19.3027 32.7357 19.3032 29.6627C19.3039 26.5887 17.9977 23.715 15.6239 21.5697C13.7809 19.9085 13.6244 18.9182 13.6844 18.762C13.7327 18.6359 14.3617 18.1264 16.3637 18.1264C16.5789 18.1264 16.8055 18.1324 17.0392 18.1444C17.2395 18.1545 17.4425 18.1597 17.6424 18.1597C17.643 18.1597 17.643 18.1597 17.6435 18.1597C20.7047 18.1595 23.5137 16.9794 25.552 14.8364C27.5999 12.6834 28.6424 9.79535 28.4871 6.70218C28.3887 4.79018 28.7182 3.72817 29.0304 3.39967C29.0874 3.33967 29.1107 3.33301 29.1782 3.33301C29.2777 3.33301 30.1989 3.38767 31.9084 5.28184C34.0517 7.65568 36.9254 8.96319 39.9999 8.96319C43.0744 8.96319 45.9479 7.65568 48.0916 5.28168C49.8008 3.38801 50.7226 3.33334 50.8224 3.33334C50.8903 3.33334 50.9138 3.34001 50.9711 3.40017C51.2829 3.72884 51.6121 4.79068 51.5126 6.70485C51.3574 9.79519 52.3999 12.6829 54.4476 14.8359C56.4864 16.9795 59.2954 18.16 62.3573 18.16C62.557 18.16 62.7599 18.1549 62.9624 18.1445C63.1943 18.1327 63.421 18.1265 63.6361 18.1265C65.6385 18.1265 66.2675 18.6359 66.316 18.762C66.3758 18.9182 66.2191 19.9084 64.3745 21.5712C62.0023 23.7149 60.6961 26.5887 60.6968 29.6627C60.6973 32.7357 62.0036 35.6076 64.3756 37.7499C66.2191 39.4129 66.375 40.4049 66.315 40.5613Z" fill="#F5F5F5" fill-opacity="0.2"/>
<path d="M40.0971 14.7744C31.3067 14.7744 24.1554 21.9244 24.1554 30.7133C24.1554 39.503 31.3067 46.654 40.0971 46.654C48.8861 46.654 56.0366 39.5031 56.0366 30.7133C56.0368 21.9246 48.8863 14.7744 40.0971 14.7744ZM40.0971 43.3206C33.1447 43.3206 27.4887 37.665 27.4887 30.7133C27.4887 23.7626 33.1447 18.1078 40.0971 18.1078C47.0481 18.1078 52.7033 23.7626 52.7033 30.7133C52.7034 37.665 47.0481 43.3206 40.0971 43.3206Z" fill="#F5F5F5" fill-opacity="0.2"/>
<path d="M40.7468 22.206C40.5268 22.183 38.5338 22.008 36.3691 22.9202C34.2869 23.7979 31.6922 25.8382 31.1562 30.5751C31.0527 31.4897 31.7102 32.3151 32.6247 32.4186C32.6886 32.4257 32.7517 32.4292 32.8144 32.4292C33.6509 32.4292 34.3721 31.8009 34.4684 30.9499C35.1176 25.2152 39.8619 25.4729 40.4098 25.5222C41.3226 25.6122 42.1361 24.949 42.2314 24.0367C42.3271 23.1214 41.6623 22.3017 40.7468 22.206Z" fill="#F5F5F5" fill-opacity="0.2"/>
</svg>
