<svg width="72" height="72" viewBox="0 0 72 72" fill="none" xmlns="http://www.w3.org/2000/svg">
<circle cx="36" cy="36" r="36" fill="#FFECB3"/>
<path fill-rule="evenodd" clip-rule="evenodd" d="M41.3709 21.3427C41.3709 24.299 38.9845 26.6855 36.0282 26.6855C33.0719 26.6855 30.6855 24.299 30.6855 21.3427C30.6855 18.3864 33.0719 16 36.0282 16C38.9845 16 41.3709 18.3864 41.3709 21.3427ZM24.1317 27.0413C28.6908 27.8606 32.7869 29.9798 36.0282 33.0074C39.2694 29.9798 43.3655 27.8606 47.9247 27.0413C50.0796 26.6673 52.0564 28.377 52.0564 30.5675V42.8914C52.0564 44.6011 50.6851 46.2574 49.011 46.4889C44.5231 47.0588 40.4448 48.9287 37.1145 51.6535C36.4912 52.1522 35.4761 52.0987 34.8528 51.5823C31.5403 48.8753 27.4976 47.041 23.0454 46.4711C21.2823 46.2395 20 44.6723 20 41.6804V30.5675C20 28.377 21.9768 26.6673 24.1317 27.0413Z" fill="#0D47A1"/>
</svg>
