<svg width="72" height="72" viewBox="0 0 72 72" fill="none" xmlns="http://www.w3.org/2000/svg">
<circle cx="36" cy="36" r="36" fill="#FFECB3"/>
<path fill-rule="evenodd" clip-rule="evenodd" d="M36.0076 25.7666C38.1826 24.1166 41.3326 23.5166 44.2576 23.5166C46.4326 23.5166 48.7426 23.8466 50.6626 24.7016C51.7576 25.1966 52.4926 26.2616 52.4926 27.4766V44.3966C52.4926 46.3616 50.6626 47.8016 48.7726 47.3066C47.3026 46.9316 45.7426 46.7666 44.2426 46.7666C41.9026 46.7666 39.4126 47.1416 37.4026 48.1466C36.5176 48.5966 35.4976 48.5966 34.5976 48.1466C32.5876 47.1566 30.0976 46.7666 27.7576 46.7666C26.2576 46.7666 24.6976 46.9316 23.2276 47.3066C21.3376 47.7866 19.5076 46.3466 19.5076 44.3966V27.4766C19.5076 26.2616 20.2426 25.1966 21.3376 24.7016C23.2726 23.8466 25.5826 23.5166 27.7576 23.5166C30.6826 23.5166 33.8326 24.1166 36.0076 25.7666ZM47.7076 44.0817C48.6376 44.2467 49.5076 43.5567 49.5076 42.6117V28.4067C49.5076 27.7017 48.9976 27.0867 48.3076 26.9367C47.0026 26.6517 45.6376 26.5167 44.2576 26.5167C41.7076 26.5167 38.0326 27.4917 36.0076 28.7667V46.0317C38.0326 44.7567 41.7076 43.7817 44.2576 43.7817C45.4126 43.7817 46.5826 43.8717 47.7076 44.0817Z" fill="#0D47A1"/>
</svg>
