<svg width="100" height="100" viewBox="0 0 100 100" fill="none" xmlns="http://www.w3.org/2000/svg">
<circle cx="50" cy="50" r="50" fill="#F5F5F5"/>
<path fill-rule="evenodd" clip-rule="evenodd" d="M48.4211 58.6667H39.7895V62.5185H48.4211V58.6667ZM50.5789 58.6667H59.2105V62.5185H50.5789V58.6667ZM48.4211 68.2963H39.7895V64.4444H48.4211V68.2963ZM50.5789 68.2963H59.2105V64.4444H50.5789V68.2963ZM48.4211 52.8889H39.7895V56.7407H48.4211V52.8889ZM50.5789 52.8889H59.2105V56.7407H50.5789V52.8889ZM48.4211 47.1111H39.7895V50.963H48.4211V47.1111ZM50.5789 47.1111H59.2105V50.963H50.5789V47.1111ZM55.9737 24H33.3217C30.9349 24 29 25.7301 29 27.866V72.134C29 74.2691 30.9225 76 33.3102 76H65.6898C68.0702 76 70 74.2701 70 72.1659V38.4444V37.4815L57.0526 24H55.9737ZM54.8947 25.9259H33.3062C32.1197 25.9259 31.1579 26.8027 31.1579 27.8431V72.1569C31.1579 73.2157 32.1391 74.0741 33.3157 74.0741H65.6843C66.876 74.0741 67.8421 73.2171 67.8421 72.1609V39.4074H59.206C56.825 39.4074 54.8947 37.7 54.8947 35.5442V25.9259ZM57.0526 26.8889V35.5386C57.0526 36.6116 58.0251 37.4815 59.2035 37.4815H67.1946L57.0526 26.8889ZM37.6316 43.2593V70.2222H61.3684V43.2593H37.6316Z" fill="#757575" fill-opacity="0.5"/>
</svg>
