<svg width="100" height="100" viewBox="0 0 100 100" fill="none" xmlns="http://www.w3.org/2000/svg">
<circle cx="50" cy="50" r="50" fill="#F5F5F5"/>
<path d="M63 38H38V40H63V38Z" fill="#757575" fill-opacity="0.5"/>
<path d="M63 45H38V47H63V45Z" fill="#757575" fill-opacity="0.5"/>
<path d="M57 52H38V54H57V52Z" fill="#757575" fill-opacity="0.5"/>
<path d="M52 59H38V61H52V59Z" fill="#757575" fill-opacity="0.5"/>
<path d="M52 65H38V67H52V65Z" fill="#757575" fill-opacity="0.5"/>
<path d="M75.3802 39.9121C74.1997 41.1027 72.1693 40.2668 72.1693 38.5902V32.5157C72.1693 31.9882 71.961 31.4821 71.5896 31.1076L64.1382 23.5919C63.7626 23.2131 63.2513 23 62.7179 23H31C29.8954 23 29 23.8954 29 25V76C29 77.1046 29.8954 78 31 78H70.1693C71.2739 78 72.1693 77.1046 72.1693 76V58.6728C72.1693 58.1453 72.3777 57.6392 72.7491 57.2646L82.6039 47.3248C83.3769 46.5452 83.3769 45.2882 82.6039 44.5085L78.0468 39.9121C77.3123 39.1713 76.1147 39.1713 75.3802 39.9121ZM69.613 48.9694C70.3954 48.1802 71.6712 48.1802 72.4536 48.9694L73.711 50.2377C74.484 51.0173 74.484 52.2743 73.711 53.054L62.0615 64.804C61.686 65.1828 61.1746 65.3958 60.6412 65.3958H59.4009C58.2963 65.3958 57.4009 64.5004 57.4009 63.3958V62.1103C57.4009 61.5828 57.6092 61.0767 57.9806 60.7022L69.613 48.9694ZM64.2171 29.8225C64.2171 28.7525 65.513 28.2189 66.2664 28.9788C67.0163 29.7352 66.4805 31.0208 65.4154 31.0208C64.7536 31.0208 64.2171 30.4843 64.2171 29.8225ZM69.8973 73.7083C69.8973 74.8129 69.0018 75.7083 67.8973 75.7083H33.2721C32.1675 75.7083 31.2721 74.8129 31.2721 73.7083V27.2917C31.2721 26.1871 32.1675 25.2917 33.2721 25.2917H59.945C61.0496 25.2917 61.945 26.1871 61.945 27.2917V31.3125C61.945 32.4171 62.8404 33.3125 63.945 33.3125H67.8973C69.0018 33.3125 69.8973 34.2079 69.8973 35.3125V44.6189C69.8973 45.1464 69.6889 45.6525 69.3175 46.027L55.7085 59.7534C55.3372 60.128 55.1288 60.6341 55.1288 61.1615V65.6875C55.1288 66.7921 56.0242 67.6875 57.1288 67.6875H61.5819C62.1153 67.6875 62.6266 67.4744 63.0021 67.0956L66.477 63.5908C67.7344 62.3225 69.8973 63.213 69.8973 64.9989V73.7083ZM78.1337 48.5931C77.3513 49.3823 76.0756 49.3823 75.2932 48.5931L74.0357 47.3248C73.2628 46.5452 73.2628 45.2882 74.0357 44.5085L75.2932 43.2402C76.0756 42.4511 77.3513 42.4511 78.1337 43.2402L79.3912 44.5085C80.1642 45.2882 80.1642 46.5452 79.3912 47.3248L78.1337 48.5931Z" fill="#757575" fill-opacity="0.5"/>
</svg>
