<svg width="80" height="80" viewBox="0 0 80 80" fill="none" xmlns="http://www.w3.org/2000/svg">
<path d="M42.8787 14.0101C43.799 14.0101 44.5453 13.2639 44.5453 12.3434C44.5453 11.4229 43.799 10.6768 42.8787 10.6768C37.7858 10.6768 33.6427 14.8203 33.6427 19.9134C33.6427 25.0026 37.786 29.1431 42.8787 29.1431C43.799 29.1431 44.5453 28.3969 44.5453 27.4764C44.5453 26.5559 43.799 25.8098 42.8787 25.8098C39.624 25.8098 36.976 23.1646 36.976 19.9134C36.976 16.6583 39.624 14.0101 42.8787 14.0101Z" fill="#F5F5F5"/>
<path d="M59.4225 52.8428C57.026 52.8428 54.8358 53.7388 53.1653 55.2108V45.7497C53.1653 44.8292 52.419 44.083 51.4987 44.083C50.5783 44.083 49.832 44.8292 49.832 45.7497V61.0837C49.832 61.3157 49.8795 61.5363 49.9652 61.737C49.9535 61.9297 49.9457 62.1233 49.9457 62.319C49.9457 67.5415 54.197 71.7902 59.4225 71.7902C64.646 71.7902 68.8955 67.5413 68.8955 62.319C68.8955 57.0938 64.646 52.8428 59.4225 52.8428ZM59.4225 68.4568C56.035 68.4568 53.279 65.7035 53.279 62.319C53.279 58.9318 56.035 56.1762 59.4225 56.1762C62.808 56.1762 65.5622 58.9318 65.5622 62.319C65.5622 65.7035 62.808 68.4568 59.4225 68.4568Z" fill="#F5F5F5"/>
<path d="M20.2755 48.0244C14.9123 48.0244 10.5492 52.3882 10.5492 57.7521C10.5492 63.1143 14.9125 67.4766 20.2755 67.4766C22.8007 67.4766 25.1037 66.5089 26.8345 64.9257V68.7504C26.8345 69.6709 27.5807 70.4171 28.5012 70.4171C29.4217 70.4171 30.1678 69.6709 30.1678 68.7504V57.2504C30.1678 56.9159 30.0683 56.6051 29.8987 56.3441C29.2145 51.6452 25.1605 48.0244 20.2755 48.0244ZM20.2755 64.1432C16.7503 64.1432 13.8825 61.2761 13.8825 57.7521C13.8825 54.2262 16.7505 51.3577 20.2755 51.3577C23.8005 51.3577 26.6685 54.2262 26.6685 57.7521C26.6687 61.2761 23.8007 64.1432 20.2755 64.1432Z" fill="#F5F5F5"/>
<path d="M72.1042 38.3333H60.8333V7.8965C60.8333 3.54233 57.2913 0 52.9375 0H27.0625C22.7087 0 19.1667 3.54233 19.1667 7.8965V38.3333H7.89583C3.542 38.3333 0 41.8757 0 46.2298V72.1035C0 76.4577 3.542 80 7.89583 80H33.7708C36.3002 80 38.554 78.803 40 76.9473C41.446 78.803 43.6997 80 46.2292 80H72.1042C76.458 80 80 76.4577 80 72.1035V46.2298C80 41.8757 76.458 38.3333 72.1042 38.3333ZM38.3333 72.1035C38.3333 74.6197 36.2867 76.6667 33.7708 76.6667H7.89583C5.38 76.6667 3.33333 74.6197 3.33333 72.1035V46.2298C3.33333 43.7137 5.38 41.6667 7.89583 41.6667H33.7708C36.2867 41.6667 38.3333 43.7137 38.3333 46.2298V72.1035ZM40 41.386C38.554 39.5303 36.3002 38.3333 33.7708 38.3333H22.5V7.8965C22.5 5.38033 24.5467 3.33333 27.0625 3.33333H52.9375C55.4533 3.33333 57.5 5.38033 57.5 7.8965V38.3333H46.2292C43.6997 38.3333 41.446 39.5303 40 41.386ZM76.6667 72.1035C76.6667 74.6197 74.62 76.6667 72.1042 76.6667H46.2292C43.7133 76.6667 41.6667 74.6197 41.6667 72.1035V46.2298C41.6667 43.7137 43.7133 41.6667 46.2292 41.6667H72.1042C74.62 41.6667 76.6667 43.7137 76.6667 46.2298V72.1035Z" fill="#F5F5F5"/>
</svg>
