<svg width="80" height="80" viewBox="0 0 80 80" fill="none" xmlns="http://www.w3.org/2000/svg">
<g clip-path="url(#clip0)">
<path d="M79.9049 45.7661C79.7554 45.3429 79.4415 44.9979 79.0344 44.8091C78.7804 44.6913 72.7222 41.9188 64.7376 41.3469C56.3201 40.7443 48.954 42.8459 43.1088 47.4611C43.4813 44.4799 43.5493 40.3394 42.6163 35.0398C42.6325 35.0341 42.6493 35.0296 42.6652 35.0231C43.6778 35.486 44.9103 35.809 46.379 35.809C49.0788 35.809 52.0385 34.6956 55.1744 32.5005C65.7429 25.104 62.7019 7.93624 62.5673 7.20908C62.4323 6.47975 61.8314 5.92742 61.0933 5.85392C60.3564 5.78058 59.6574 6.20408 59.3814 6.89241C59.3736 6.91208 58.4318 8.90224 54.7818 9.98673C50.4006 11.2921 45.4352 12.7714 42.0267 15.7964C39.6673 17.8847 38.1364 19.9319 37.3457 22.055C36.8237 23.457 36.6284 24.864 36.7564 26.2692C36.3635 26.1335 35.9487 26.0095 35.5087 25.8982C34.6467 25.6793 33.7219 25.5728 32.681 25.5728C30.8475 25.5728 28.9576 25.9042 26.8574 26.3038C26.4642 26.378 26.0859 26.4155 25.7331 26.4155C24.7476 26.4155 24.2287 26.1273 24.1079 26.0507C23.5701 25.5265 22.7909 25.4708 22.1416 25.8573C21.4831 26.2488 21.2249 27.084 21.4466 27.8173C21.5794 28.257 24.7924 38.5939 32.855 39.6834C33.5415 39.7756 34.2029 39.8224 34.8207 39.8224C37.042 39.8224 38.6285 39.2276 39.7375 38.3906C40.3705 43.8308 39.8232 47.6156 39.3048 49.7279C36.5449 46.9607 33.372 44.8458 29.8407 43.4261C26.2409 41.9786 22.2522 41.2449 17.9856 41.2449C8.71647 41.2449 1.27466 44.6646 0.962331 44.8103C0.556999 44.9993 0.244667 45.3431 0.0955008 45.7648C-0.0536653 46.1864 -0.027332 46.6502 0.168834 47.0521L7.61214 62.3018C7.9183 62.9288 8.5828 63.2985 9.27713 63.229C11.5131 63.0037 13.6769 62.8893 15.7083 62.8893C23.6301 62.8893 30.0632 64.6528 34.3124 67.9892C37.4385 70.444 38.3245 72.9321 38.3474 72.9978C38.348 73.0001 38.349 73.0021 38.3499 73.0045C38.5105 73.493 38.8909 73.902 39.416 74.0718C39.5878 74.1273 39.762 74.1538 39.9333 74.1538C40.6072 74.1538 41.233 73.7428 41.483 73.0861C41.4893 73.07 41.4952 73.054 41.501 73.0376C41.5047 73.0268 41.5092 73.0166 41.5127 73.0058C41.5232 72.9755 42.5998 69.938 46.6192 67.2367C50.4148 64.6855 57.6661 61.9207 70.6546 63.2292C71.3477 63.298 72.0096 62.9315 72.3169 62.3075L79.8282 47.0577C80.0269 46.6549 80.0544 46.1892 79.9049 45.7661ZM38.0644 33.1016C37.5744 33.0488 36.6615 32.6905 35.0942 31.2856C34.4089 30.671 33.3552 30.7286 32.7407 31.414C32.1262 32.0993 32.1837 33.1531 32.869 33.7675C34.3979 35.1385 35.6572 35.8825 36.744 36.2195C36.2427 36.3846 35.6135 36.4896 34.8207 36.4896C34.3512 36.4895 33.839 36.4526 33.3004 36.3803C29.6182 35.8828 27.1796 32.3655 25.8532 29.7483C26.3762 29.7408 26.9214 29.6842 27.4777 29.5792C29.4119 29.2112 31.1385 28.9065 32.6812 28.9065C33.4415 28.9065 34.098 28.9795 34.6897 29.1297C36.7375 29.6478 37.9659 30.4195 38.4857 31.5716C38.4934 31.6546 38.5052 31.738 38.526 31.8213C38.6132 32.1721 38.6949 32.5176 38.7732 32.8595C38.7748 32.9006 38.7767 32.942 38.7772 32.984C38.5242 33.0843 38.3067 33.1285 38.0644 33.1016ZM38.265 67.0445C34.8855 63.5758 28.2614 59.556 15.7086 59.556C13.9208 59.556 12.04 59.6395 10.1028 59.8045L3.94749 47.1934C6.49148 46.2461 11.8426 44.5786 17.9861 44.5786C26.3137 44.5786 33.133 47.5794 38.265 53.5004V67.0445ZM44.238 18.2912C47.0955 15.755 51.6848 14.3877 55.7328 13.1819C57.4101 12.6834 58.6918 12.0187 59.6633 11.3352C59.9474 16.3455 59.4961 25.4078 53.2635 29.7696C50.6981 31.5651 48.382 32.4755 46.3793 32.4755C45.9583 32.4755 45.5702 32.4326 45.2115 32.3603C47.1748 31.4425 48.9426 29.7507 53.0695 23.7572C53.5915 22.9992 53.4001 21.9613 52.642 21.4394C51.884 20.9175 50.8461 21.1085 50.324 21.8669C45.546 28.8057 44.5443 29.1435 42.5488 29.8167C42.3182 29.8945 42.0728 29.9776 41.81 30.0713C41.7922 30.0426 41.7742 30.017 41.7485 29.9815C38.8567 25.9803 39.6238 22.3753 44.238 18.2912ZM69.8341 59.8047C58.9903 58.8755 50.4683 60.5052 44.4903 64.654C43.3313 65.4583 42.3793 66.2892 41.5982 67.0902V53.5039C47.2472 46.9861 54.9148 44.0118 64.3982 44.6644C69.4962 45.0156 73.827 46.3757 76.0447 47.1954L69.8341 59.8047Z" fill="#F5F5F5" fill-opacity="0.2"/>
</g>
<defs>
<clipPath id="clip0">
<rect width="80" height="80" fill="white"/>
</clipPath>
</defs>
</svg>
