<svg width="100" height="100" viewBox="0 0 100 100" fill="none" xmlns="http://www.w3.org/2000/svg">
<circle cx="50" cy="50" r="50" fill="#F5F5F5" />
<path
    d="M70.9531 61.5781C70.5647 61.5781 70.25 61.8929 70.25 62.2812V70.4844C70.25 71.6475 69.3037 72.5938 68.1406 72.5938H44.3281C43.9397 72.5938 43.625 72.9086 43.625 73.2969C43.625 73.6852 43.9397 74 44.3281 74H68.1406C70.0792 74 71.6562 72.4229 71.6562 70.4844V62.2812C71.6562 61.8929 71.3415 61.5781 70.9531 61.5781Z"
    fill="#757575"
    fill-opacity="0.5"
  />
<path
    d="M68.1406 30.6875H65.0938V27.6406C65.0938 26.736 64.3577 26 63.4531 26H60.6406C59.736 26 59 26.736 59 27.6406V30.6875H41V27.6406C41 26.736 40.264 26 39.3594 26H36.5469C35.6423 26 34.9062 26.736 34.9062 27.6406V30.6875H31.8594C29.9208 30.6875 28.3438 32.2646 28.3438 34.2031V70.4844C28.3438 72.4229 29.9208 74 31.8594 74H41.0469C41.4353 74 41.75 73.6852 41.75 73.2969C41.75 72.9086 41.4353 72.5938 41.0469 72.5938H31.8594C30.6963 72.5938 29.75 71.6475 29.75 70.4844V41.4688H56.5156C56.904 41.4688 57.2188 41.1539 57.2188 40.7656C57.2188 40.3773 56.904 40.0625 56.5156 40.0625H29.75V34.2031C29.75 33.04 30.6963 32.0938 31.8594 32.0938H34.9062V35.1406C34.9062 36.0452 35.6423 36.7812 36.5469 36.7812H39.3594C40.264 36.7812 41 36.0452 41 35.1406V32.0938H59V35.1406C59 36.0452 59.736 36.7812 60.6406 36.7812H63.4531C64.3577 36.7812 65.0938 36.0452 65.0938 35.1406V32.0938H68.1406C69.3037 32.0938 70.25 33.04 70.25 34.2031V40.0625H59.7969C59.4085 40.0625 59.0938 40.3773 59.0938 40.7656C59.0938 41.1539 59.4085 41.4688 59.7969 41.4688H70.25V59C70.25 59.3883 70.5647 59.7031 70.9531 59.7031C71.3415 59.7031 71.6562 59.3883 71.6562 59V34.2031C71.6562 32.2646 70.0792 30.6875 68.1406 30.6875ZM39.5938 35.1406C39.5938 35.2698 39.4887 35.375 39.3594 35.375H36.5469C36.4176 35.375 36.3125 35.2698 36.3125 35.1406V27.6406C36.3125 27.5114 36.4176 27.4062 36.5469 27.4062H39.3594C39.4887 27.4062 39.5938 27.5114 39.5938 27.6406V35.1406ZM63.6875 35.1406C63.6875 35.2698 63.5824 35.375 63.4531 35.375H60.6406C60.5113 35.375 60.4062 35.2698 60.4062 35.1406V27.6406C60.4062 27.5114 60.5113 27.4062 60.6406 27.4062H63.4531C63.5824 27.4062 63.6875 27.5114 63.6875 27.6406V35.1406Z"
    fill="#757575"
    fill-opacity="0.5"
  />
<path
    d="M57.27 68.5325H63.7209C64.5039 68.5325 65.1408 67.8955 65.1408 67.1126V60.6618V53.4942V47.0434C65.1408 46.2605 64.5039 45.6235 63.7209 45.6235H57.27H50.0001H42.7302H36.2793C35.4963 45.6235 34.8594 46.2605 34.8594 47.0434V53.4942V60.6618V67.1126C34.8594 67.8955 35.4963 68.5325 36.2793 68.5325H42.7302H50.0001H57.27ZM36.2657 54.1973H42.027V59.9587H36.2657V54.1973ZM43.4333 54.1973H49.297V59.9587H43.4333V54.1973ZM63.7345 59.9587H57.9732V54.1973H63.7345V59.9587ZM56.5669 59.9587H50.7032V54.1973H56.5669V59.9587ZM50.7032 61.3649H56.5669V67.1262H50.7032V61.3649ZM63.7345 67.1126C63.7345 67.1201 63.7284 67.1262 63.7208 67.1262H57.9731V61.3649H63.7345V67.1126ZM63.7345 47.0434V52.7911H57.9732V47.0298H63.7209C63.7284 47.0298 63.7345 47.0359 63.7345 47.0434ZM56.5669 52.7911H50.7032V47.0298H56.5669V52.7911ZM49.297 52.7911H43.4333V47.0298H49.297V52.7911ZM36.2657 47.0434C36.2657 47.0359 36.2718 47.0298 36.2794 47.0298H42.0271V52.7911H36.2657V47.0434ZM36.2657 67.1126V61.3649H42.027V67.1262H36.2793C36.2718 67.1262 36.2657 67.1201 36.2657 67.1126ZM43.4333 61.3649H49.297V67.1262H43.4333V61.3649Z"
    fill="#757575"
    fill-opacity="0.5"
  />
</svg>
