<svg width="100" height="100" viewBox="0 0 100 100" fill="none" xmlns="http://www.w3.org/2000/svg">
<circle cx="50" cy="50" r="50" fill="#F5F5F5"/>
<g clip-path="url(#clip0)">
<path d="M59.2115 22.4479C58.9579 22.1827 58.6104 22.0234 58.2501 22.0234H36.6813C32.7013 22.0234 29.416 25.2736 29.416 29.2263V69.7383C29.416 73.6915 32.7013 76.9416 36.6813 76.9416H65.9558C69.9358 76.9416 73.221 73.6915 73.221 69.7383V37.5701C73.221 37.2253 73.0607 36.8939 72.8338 36.6417L59.2115 22.4479ZM59.5987 26.7061L68.7205 36.2172H62.7907C61.0279 36.2172 59.5987 34.8111 59.5987 33.0601V26.7061ZM65.9558 74.2885H36.6813C34.184 74.2885 32.0871 72.2325 32.0871 69.7383V29.2263C32.0871 26.7459 34.1705 24.6765 36.6813 24.6765H56.9277V33.0601C56.9277 36.2834 59.5456 38.8703 62.7907 38.8703H70.55V69.7383C70.55 72.2325 68.4665 74.2885 65.9558 74.2885Z" fill="#757575"/>
<path d="M62.3094 65.1367H40.3267C39.5923 65.1367 38.9912 65.7334 38.9912 66.4633C38.9912 67.1927 39.5923 67.7898 40.3267 67.7898H62.3229C63.0573 67.7898 63.6584 67.1927 63.6584 66.4633C63.6584 65.7334 63.0573 65.1367 62.3094 65.1367Z" fill="#757575"/>
<path d="M44.481 50.8634L49.9835 44.9867V59.4725C49.9835 60.2019 50.5846 60.799 51.319 60.799C52.0538 60.799 52.6545 60.2019 52.6545 59.4725V44.9867L58.1569 50.8634C58.4239 51.1417 58.7715 51.2879 59.1318 51.2879C59.4524 51.2879 59.7865 51.1685 60.04 50.9296C60.5745 50.4256 60.6145 49.5897 60.1071 49.0593L52.2808 40.7155C52.0268 40.4502 51.6796 40.291 51.3059 40.291C50.9317 40.291 50.5846 40.4502 50.331 40.7155L42.5047 49.0593C41.9973 49.5897 42.0374 50.4386 42.5714 50.9296C43.1324 51.4337 43.9736 51.3939 44.481 50.8634Z" fill="#757575"/>
</g>
<defs>
<clipPath id="clip0">
<rect width="43.4426" height="54.918" fill="white" transform="translate(29.5088 22.1309)"/>
</clipPath>
</defs>
</svg>
