<svg width="68" height="68" viewBox="0 0 68 68" fill="none" xmlns="http://www.w3.org/2000/svg">
<path fill-rule="evenodd" clip-rule="evenodd" d="M12.665 51.0107H55.335C59.6983 51.0107 62.4183 46.279 60.2367 42.5107L38.9017 5.649C36.72 1.88067 31.28 1.88067 29.0983 5.649L7.76334 42.5107C5.58167 46.279 8.30167 51.0107 12.665 51.0107ZM34 31.1774C32.4417 31.1774 31.1667 29.9024 31.1667 28.3441V22.6774C31.1667 21.1191 32.4417 19.8441 34 19.8441C35.5583 19.8441 36.8333 21.1191 36.8333 22.6774V28.3441C36.8333 29.9024 35.5583 31.1774 34 31.1774ZM31.1667 42.5107H36.8333V36.8441H31.1667V42.5107Z" fill="#0D47A1"/>
</svg>
